<svg width="30" height="30" viewBox="0 0 30 30" fill="none" xmlns="http://www.w3.org/2000/svg">
<g clip-path="url(#clip0)">
<path d="M15.0003 -0.000274658C6.71608 -0.000274658 0.000366211 6.71544 0.000366211 14.9997C0.000366211 23.2839 6.71608 29.9997 15.0003 29.9997C23.2846 29.9997 30.0003 23.2839 30.0003 14.9997C29.9915 6.71915 23.2809 0.00857718 15.0003 -0.000274658ZM6.669 5.19393C8.99553 3.21947 11.949 2.13779 15.0003 2.14262C18.0392 2.14168 20.9792 3.22223 23.2943 5.19086L5.18717 23.2979C0.597081 17.8894 1.26053 9.78402 6.669 5.19393ZM23.3317 24.8055C21.0052 26.78 18.0518 27.8617 15.0004 27.8568C11.9615 27.8578 9.02152 26.7772 6.70648 24.8086L24.8136 6.70144C29.4037 12.11 28.7402 20.2154 23.3317 24.8055Z" fill="#1C1C2E"/>
</g>
<defs>
<clipPath id="clip0">
<rect width="30" height="30" fill="white" transform="translate(0.000366211 -0.000274658)"/>
</clipPath>
</defs>
</svg>
