<svg width="67" height="67" viewBox="0 0 67 67" fill="none" xmlns="http://www.w3.org/2000/svg">
<path d="M25.7297 15.75C29.0014 10.0833 37.1805 10.0833 40.4521 15.75L51.7892 35.3864C55.0608 41.053 50.9713 48.1364 44.428 48.1364H21.7538C15.2105 48.1364 11.121 41.053 14.3926 35.3864L25.7297 15.75Z" stroke="#33334D" stroke-width="3"/>
<path d="M29.6629 23.2546H36.6829L35.5129 34.4866H30.8329L29.6629 23.2546ZM33.1729 41.7146C32.1675 41.7146 31.3442 41.4113 30.7029 40.8046C30.0615 40.1979 29.7409 39.4613 29.7409 38.5946C29.7409 37.7106 30.0615 36.9826 30.7029 36.4106C31.3442 35.8213 32.1675 35.5266 33.1729 35.5266C34.1782 35.5266 35.0015 35.8213 35.6429 36.4106C36.2842 36.9826 36.6049 37.7106 36.6049 38.5946C36.6049 39.4613 36.2842 40.1979 35.6429 40.8046C35.0015 41.4113 34.1782 41.7146 33.1729 41.7146Z" fill="#33334D"/>
</svg>
