<svg width="33" height="33" viewBox="0 0 33 33" fill="none" xmlns="http://www.w3.org/2000/svg">
<g clip-path="url(#clip0)">
<path d="M25.7815 12.1169H23.4588V6.81693C23.4588 3.0579 20.3361 -0.000274658 16.4979 -0.000274658C12.6596 -0.000274658 9.53692 3.0579 9.53692 6.81693V12.1169H7.21899C5.08663 12.1169 3.35181 13.8517 3.35181 15.9841V29.1325C3.35181 31.2649 5.08663 32.9997 7.21899 32.9997H25.7815C27.9139 32.9997 29.6487 31.2649 29.6487 29.1325V15.9841C29.6487 13.8517 27.9139 12.1169 25.7815 12.1169ZM12.115 6.81693C12.115 4.47948 14.0812 2.57785 16.4979 2.57785C18.9145 2.57785 20.8807 4.47948 20.8807 6.81693V12.1169H12.115V6.81693ZM27.0706 29.1325C27.0706 29.8433 26.4923 30.4216 25.7815 30.4216H7.21899C6.50821 30.4216 5.92993 29.8433 5.92993 29.1325V15.9841C5.92993 15.2733 6.50821 14.695 7.21899 14.695H25.7815C26.4923 14.695 27.0706 15.2733 27.0706 15.9841V29.1325Z" fill="#1C1C2E"/>
<path d="M16.5002 18.4333C15.1831 18.4333 14.1155 19.501 14.1155 20.8181C14.1155 21.6591 14.5512 22.3978 15.2088 22.8224V25.6521C15.2088 26.364 15.7859 26.9411 16.4979 26.9411C17.2097 26.9411 17.7869 26.364 17.7869 25.6521V22.8255C18.4472 22.4014 18.885 21.6611 18.885 20.8181C18.885 19.501 17.8173 18.4333 16.5002 18.4333Z" fill="#1C1C2E"/>
</g>
<defs>
<clipPath id="clip0">
<rect width="33" height="33" fill="white" transform="translate(0.000244141 -0.000274658)"/>
</clipPath>
</defs>
</svg>
