<svg width="25" height="25" viewBox="0 0 25 25" fill="none" xmlns="http://www.w3.org/2000/svg">
<g clip-path="url(#clip0)">
<path d="M21.3391 16.161C19.9776 14.7996 18.3571 13.7917 16.5891 13.1816C18.4827 11.8774 19.7268 9.69462 19.7268 7.22646C19.7268 3.24174 16.485 -0.000106812 12.5002 -0.000106812C8.51553 -0.000106812 5.27368 3.24174 5.27368 7.22646C5.27368 9.69462 6.51777 11.8774 8.41147 13.1816C6.64341 13.7917 5.0229 14.7996 3.66143 16.161C1.30049 18.522 0.000244141 21.661 0.000244141 24.9999H1.95337C1.95337 19.1843 6.68467 14.453 12.5002 14.453C18.3158 14.453 23.0471 19.1843 23.0471 24.9999H25.0002C25.0002 21.661 23.7 18.522 21.3391 16.161ZM12.5002 12.4999C9.59248 12.4999 7.22681 10.1343 7.22681 7.22646C7.22681 4.31864 9.59248 1.95302 12.5002 1.95302C15.408 1.95302 17.7737 4.31864 17.7737 7.22646C17.7737 10.1343 15.408 12.4999 12.5002 12.4999Z" fill="white"/>
</g>
<defs>
<clipPath id="clip0">
<rect width="25" height="25" fill="white" transform="translate(0.000244141 -0.000106812)"/>
</clipPath>
</defs>
</svg>
